PathFileType	4	(X/Y/Z)	E:\3-PhD\Data\MocapData\ElaboratedData\009\pre\dynamicElaborations\RunN1\RunN1.trc
DataRate	CameraRate	NumFrames	NumMarkers	Units	OrigDataRate	DataStartFrame
200	200	4	54	mm	200	557
Frame#	Time	FHD			LBHD			RBHD			C7			T10			CLAV			LSHO			LUUPA			LMUPA			LDUPA			LLEP			LMEP			LRAD			LUL			LRFIN			RSHO			RUPA1			RMUPA			RDUPA			RLEP			RMEP			RRAD			RUL			RUFIN			RASI			USACR			LSACR			RSACR			LTHI1			LTHI2			LTHI3			LTHI4			LTIB1			LTIB2			LTIB3			LTIB4			LLMAL			LHEE			LMT1			LMT2			RTHI			RTHI2			RTHI3			RTHI4			RLFC			RTIB1			RTIB2			RTIB3			RTIB4			RLMAL			RHEE			RMT1			RMT2			RMT5		
		X1	Y1	Z1	X2	Y2	Z2	X3	Y3	Z3	X4	Y4	Z4	X5	Y5	Z5	X6	Y6	Z6	X7	Y7	Z7	X8	Y8	Z8	X9	Y9	Z9	X10	Y10	Z10	X11	Y11	Z11	X12	Y12	Z12	X13	Y13	Z13	X14	Y14	Z14	X15	Y15	Z15	X16	Y16	Z16	X17	Y17	Z17	X18	Y18	Z18	X19	Y19	Z19	X20	Y20	Z20	X21	Y21	Z21	X22	Y22	Z22	X23	Y23	Z23	X24	Y24	Z24	X25	Y25	Z25	X26	Y26	Z26	X27	Y27	Z27	X28	Y28	Z28	X29	Y29	Z29	X30	Y30	Z30	X31	Y31	Z31	X32	Y32	Z32	X33	Y33	Z33	X34	Y34	Z34	X35	Y35	Z35	X36	Y36	Z36	X37	Y37	Z37	X38	Y38	Z38	X39	Y39	Z39	X40	Y40	Z40	X41	Y41	Z41	X42	Y42	Z42	X43	Y43	Z43	X44	Y44	Z44	X45	Y45	Z45	X46	Y46	Z46	X47	Y47	Z47	X48	Y48	Z48	X49	Y49	Z49	X50	Y50	Z50	X51	Y51	Z51	X52	Y52	Z52	X53	Y53	Z53	X54	Y54	Z54	

614	3.065000	-1422.677578	1516.205069	416.835306	-1587.398693	1585.414597	325.829107	-1556.596515	1561.318187	446.057200	-1691.027841	1455.361442	361.451737	-1870.833229	1148.661348	359.031429	-1586.382809	1325.978773	369.948078	-1603.543621	1421.369686	240.953519	-1595.030930	1273.343798	116.117061	-1553.013711	1255.783505	128.169059	-1573.458746	1210.540708	95.567678	-1544.614918	1097.949217	62.446332	-1551.303400	1054.999003	127.849571	-1409.020455	1249.811747	214.873766	-1348.260658	1211.019933	199.494339	-1377.224223	1309.455745	190.719017	-1631.871193	1416.081582	522.547864	-1790.842835	1390.232129	605.456075	-1804.266113	1345.190935	607.704776	-1855.650510	1375.340695	615.184528	-1987.000106	1337.356103	636.460031	-1999.509457	1325.827084	565.527735	-2024.233180	1077.364012	670.040511	-2084.809664	1107.641445	699.174114	-2017.504710	1039.183869	742.641515	-1745.353106	941.545955	446.480281	-1904.828627	1073.182097	373.721540	-1923.821964	1044.668544	347.484272	-1915.880979	1043.455459	404.576946	-1988.136059	754.392291	178.418225	-2010.148766	672.266922	184.193761	-1971.575999	647.307609	195.764209	-2065.798580	648.479552	195.272265	-2220.570318	403.188445	247.229024	-2300.801015	420.113970	213.927994	-2273.175409	388.448902	226.833099	-2323.164150	324.850375	257.093703	-2471.521111	256.855596	256.274928	-2528.865856	308.121502	307.874851	-2468.645912	98.244649	335.498646	-2473.337906	95.574576	288.989829	-1680.383629	793.113815	523.348717	-1616.807381	783.876593	514.160749	-1596.488520	808.068181	498.665936	-1581.250887	707.203623	494.566251	-1508.329488	643.555293	471.918881	-1518.222787	432.512415	425.747215	-1602.436274	376.305115	467.805146	-1562.770144	362.756030	445.967276	-1572.712935	317.771182	413.059336	-1649.779494	239.961844	446.073203	-1734.937517	217.977444	403.290445	-1522.070720	156.864602	358.944571	-1515.047189	154.509127	398.949228	-1555.935459	133.713127	452.719385	
615	3.070000	-1392.896205	1517.011974	419.020507	-1557.578648	1585.998055	327.790988	-1526.903034	1561.983708	448.056088	-1661.518150	1456.435828	363.016239	-1841.312893	1150.174681	357.924265	-1556.892216	1327.140984	371.643765	-1573.592326	1423.242244	242.804152	-1565.040163	1276.686591	116.098526	-1523.318032	1258.568879	127.895222	-1544.061797	1214.011450	94.592673	-1516.460368	1101.986314	59.839310	-1523.740280	1057.846169	124.799265	-1385.178386	1253.112079	216.518582	-1323.555896	1215.222616	201.600150	-1354.108021	1313.350016	193.352365	-1602.513455	1416.830700	523.945350	-1762.237115	1392.157060	605.032192	-1775.855427	1347.226224	607.456181	-1827.264407	1377.671222	613.626045	-1958.969777	1340.124985	634.067111	-1970.441134	1327.406417	563.033533	-1994.955379	1079.893538	670.104556	-2055.995386	1110.106579	698.426119	-1988.644536	1042.706999	743.302289	-1715.787501	942.906540	444.746139	-1874.851939	1074.716069	372.256112	-1893.595650	1046.145006	345.866305	-1886.190248	1045.028678	403.177859	-1957.675721	756.903738	177.394485	-1980.444940	675.081317	184.776786	-1942.396285	649.887412	197.227676	-2036.505129	652.097990	195.597538	-2196.926640	410.160784	249.090898	-2276.135478	428.385866	214.257452	-2249.455030	396.304473	227.836165	-2301.424446	334.285674	257.903052	-2451.399570	270.380710	255.095327	-2506.397882	325.083781	305.896586	-2457.660225	110.858432	334.992704	-2461.647544	107.417900	288.185451	-1651.554689	793.912129	521.900950	-1587.997554	784.363118	513.256259	-1567.399949	808.244424	497.859367	-1552.616543	707.246735	494.784087	-1479.246786	642.364465	473.079197	-1476.798351	429.922665	426.425610	-1557.017023	367.686543	467.916780	-1516.530812	357.094604	446.111173	-1523.529281	312.000177	412.896239	-1594.885508	228.470818	444.911575	-1678.350589	201.205311	402.052460	-1461.846591	156.053987	357.547732	-1454.560921	153.322131	397.171440	-1493.865460	128.915379	450.537980	
616	3.075000	-1362.998409	1517.700606	421.175673	-1527.616416	1586.435678	329.683360	-1497.107066	1562.515028	450.006342	-1631.887573	1457.428995	364.637339	-1811.827042	1151.727023	357.059339	-1527.377058	1328.091481	373.199127	-1543.542711	1424.918286	244.494340	-1535.687057	1279.688776	115.935192	-1494.231450	1260.909570	127.264994	-1515.553426	1217.138392	93.339661	-1489.398320	1105.595053	57.170148	-1496.949732	1060.346070	121.888234	-1361.375236	1254.630291	218.294467	-1299.125328	1217.380904	203.548384	-1330.747065	1315.379719	196.364402	-1573.044156	1417.326555	525.319680	-1733.463628	1393.519959	604.695947	-1747.186430	1348.663500	607.335261	-1798.671602	1379.337060	612.248930	-1930.551718	1342.036418	631.943577	-1941.120271	1328.242301	560.928883	-1965.025952	1081.517942	670.243825	-2026.514199	1111.550692	697.885839	-1958.995996	1045.240646	743.965300	-1686.367691	944.042831	442.974404	-1845.074241	1076.207657	371.228142	-1863.527085	1047.599289	344.689359	-1856.556212	1046.492151	402.158538	-1926.734756	758.799012	176.401740	-1949.993122	677.228135	185.265462	-1912.391761	651.948079	198.557667	-2006.355183	654.819225	195.793966	-2172.459155	416.282046	250.917363	-2250.491341	436.152490	214.564633	-2224.951610	403.573033	228.873502	-2279.207270	343.639646	258.950417	-2431.035302	284.761490	254.410080	-2483.929345	342.418608	304.419240	-2445.249160	125.006704	334.745238	-2448.564982	120.949412	287.701605	-1623.145357	793.823831	520.660010	-1559.639786	783.825248	512.542004	-1538.731534	807.336366	497.204363	-1524.591959	706.164463	495.288826	-1451.010814	639.937355	474.401914	-1436.380502	427.037255	427.226689	-1512.267052	359.109529	468.101565	-1471.168584	351.507405	446.341522	-1475.257883	306.486235	412.856050	-1540.618222	217.618266	443.828109	-1622.045131	185.407472	400.768477	-1403.027845	156.100680	356.342797	-1395.505391	152.870366	395.589599	-1433.053147	124.933278	448.436996	
617	3.080000	-1332.972111	1518.278949	423.278524	-1497.514145	1586.773148	331.528897	-1467.179714	1562.932296	451.916479	-1602.104174	1458.361663	366.317608	-1782.366891	1153.289191	356.392071	-1497.829533	1328.862597	374.625702	-1513.379061	1426.401701	246.026374	-1507.002221	1282.379889	115.630082	-1465.800572	1262.850161	126.314919	-1487.944761	1219.957540	91.846146	-1463.451530	1108.777579	54.494568	-1471.477848	1062.610425	119.019879	-1337.538740	1254.385955	220.171076	-1274.925547	1217.466981	205.318450	-1307.011033	1315.532801	199.726531	-1543.473967	1417.585618	526.688265	-1704.536700	1394.321068	604.494519	-1718.272531	1349.501767	607.367450	-1769.898176	1380.333893	611.129465	-1901.774043	1343.068031	630.168339	-1911.566856	1328.331972	559.247462	-1934.455984	1082.215457	670.457601	-1996.378830	1111.951109	697.552903	-1928.571573	1046.737483	744.617962	-1657.073210	944.964537	441.278413	-1815.508633	1077.627742	370.584806	-1833.621407	1049.003750	343.897809	-1826.993603	1047.820207	401.487081	-1895.296095	760.002906	175.491237	-1918.778530	678.620101	185.670188	-1881.539079	653.407559	199.777514	-1975.338078	656.540594	195.820531	-2147.295921	421.610347	252.537321	-2224.015900	443.504941	214.804624	-2199.798127	410.352439	229.840904	-2256.553309	352.949070	260.088651	-2410.367397	299.957660	254.182686	-2461.341391	360.140276	303.472579	-2431.363168	140.542796	334.760372	-2434.102508	136.047468	287.548434	-1595.124219	792.835664	519.716175	-1531.708157	782.234720	512.083439	-1510.469069	805.323059	496.754297	-1497.184533	703.947227	496.037191	-1423.664028	636.314394	475.757243	-1397.064521	423.884388	428.088248	-1468.349186	350.655169	468.339363	-1426.843772	346.028063	446.629879	-1428.089998	301.241141	412.928248	-1487.261835	207.450196	442.857582	-1566.369537	170.661857	399.478099	-1345.867735	156.894785	355.375794	-1338.124724	153.045610	394.252681	-1373.786124	121.676116	446.462408	
